<svg fill="#FFFFFF" xmlns="http://www.w3.org/2000/svg"  viewBox="0 0 64 64" width="64px" height="64px"><path d="M32,6C17.641,6,6,17.641,6,32c0,14.359,11.641,26,26,26s26-11.641,26-26C58,17.641,46.359,6,32,6z M32.646,33.909	c0,5.427-3.257,10.015-9.142,10.015c-5.664,0-9.44-4.961-9.44-11.44c0-7.069,3.924-11.191,9.44-11.191	c3.886,0,6.181,1.333,7.995,4.093l-3.11,1.799c-1.073-1.706-2.369-2.357-4.589-2.357c-3.703,0-5.849,2.324-5.849,7.657	c0,4.589,2.073,7.999,5.553,7.999c3.257,0,4.701-1.798,4.701-4.744h-4.331v-3.317h8.773V33.909z M44.27,34.033v6.449h-2.821v-6.449	h-6.449v-2.821h6.449v-6.418h2.821v6.418h6.419v2.821H44.27z"/></svg>